<svg width="38" height="84" viewBox="0 0 38 84" fill="none" xmlns="http://www.w3.org/2000/svg">
<path d="M29.2768 81.4398L30.0822 68.0191L32.306 64.2228C32.306 64.2228 27.2446 66.2934 18.7709 66.2934C10.297 66.2934 5.31229 64.2611 5.31229 64.2611L7.80458 68.4023L8.68625 81.4398C8.68625 82.8376 13.2955 83.9705 18.9816 83.9705C24.6674 83.9705 29.2768 82.8376 29.2768 81.4398ZM26.7363 18.7671L28.4268 12.0849L37.7882 2.23408L35.3209 0.132446L25.4099 10.6261L23.4471 18.6095C21.9698 18.56 20.4919 18.5354 19.0138 18.5357C8.57569 18.5357 0.113861 19.7254 0.113861 21.1926C0.113861 22.6599 8.57569 23.8494 19.0138 23.8494C29.4518 23.8494 37.9135 22.6599 37.9135 21.1926C37.9135 20.1121 33.3242 19.1822 26.7363 18.7671Z" fill="#D34A47"/>
<path d="M25.7524 22.5092C25.7524 22.5092 25.3863 22.5912 24.3093 22.5958C23.2321 22.6003 22.4672 22.5888 22.1625 22.3113C22.0806 22.2368 22.0358 22.0889 22.0362 21.9887C22.0371 21.798 22.1725 21.6857 22.3449 21.6153L22.508 21.8712C22.4371 21.8957 22.3966 21.9246 22.3964 21.9555C22.3958 22.1003 23.4979 22.1994 24.3408 22.1888C25.1839 22.1784 26.2025 22.1089 26.2034 21.9662C26.2034 21.923 26.1264 21.8823 25.9924 21.8503L26.1547 21.5962C26.3732 21.664 26.5639 21.795 26.5634 22.0218C26.5613 22.4074 26.0707 22.466 25.7524 22.5092Z" fill="white"/>
<path d="M37.7693 2.25349C38.0047 1.98161 37.6475 1.28616 36.9715 0.700384C36.2952 0.114907 35.5562 -0.139467 35.3204 0.13242C35.0848 0.404307 35.4422 1.09976 36.1185 1.68523C36.7944 2.27086 37.5338 2.52553 37.7693 2.25349ZM28.8261 48.6585C28.6042 46.5237 33.4951 43.432 32.2399 43.3331C29.5378 43.4876 28.193 46.4998 26.8334 49.6547C26.3353 50.811 24.6305 55.7415 23.5125 55.1345C22.3947 54.5278 24.9616 50.4734 25.6811 48.0656C24.8509 48.6743 21.8064 51.0398 21.0218 48.8245C19.7604 49.8959 17.0649 50.4763 17.369 47.662C16.6979 48.8508 15.1918 50.5105 13.3839 49.8208C11.0098 48.9153 14.7596 41.3522 15.692 41.7338C16.6246 42.1152 15.5039 43.8381 15.2103 44.5071C14.5648 45.9795 13.819 47.8305 14.3172 48.2094C15.1707 48.8585 17.4932 45.7536 17.5449 45.6854C17.9792 45.1115 19.2168 41.3568 20.2142 41.788C21.2116 42.2191 17.7264 47.1764 19.0295 48.1602C19.2923 48.3588 20.3676 48.0378 21.0218 47.33C21.4451 46.8722 21.2995 45.8581 22.7103 42.4934C24.1212 39.1288 25.3786 34.9385 26.3462 35.2578C27.3138 35.5769 26.5163 37.7275 26.1692 38.5292C24.5403 42.292 21.7236 48.5084 23.052 48.0378C24.3803 47.5673 25.072 47.5397 26.3728 46.0175C27.6736 44.4953 27.6136 41.9879 28.4806 42.0412C29.3478 42.0946 29.2023 42.8985 28.992 43.5107C29.8453 42.5342 33.0369 40.4775 33.8074 42.5144C34.7201 44.9259 29.2411 48.4093 30.6072 48.2316C31.9391 48.0584 34.0969 46.6917 35.0182 45.4491L37.5541 22.6495C37.5541 22.6495 35.0023 24.7613 18.7679 24.7613C2.53324 24.7613 0.245445 22.6934 0.245445 22.6934L2.40442 43.504C3.55039 40.2469 6.27167 33.6587 10.5611 33.8798C12.5123 33.9804 15.1171 37.7377 12.8859 37.865C11.9414 37.9188 11.8456 35.9896 10.7272 35.7063C9.92018 35.5018 8.79661 36.1579 8.07047 36.8688C6.62235 38.2861 3.5078 43.878 3.91933 46.6659C4.44364 50.2202 8.82377 45.4308 9.5649 44.0089C10.0868 43.0073 10.4394 40.0397 11.581 40.3511C12.7226 40.6624 11.4814 43.725 10.6539 46.4328C9.72428 49.4732 9.23559 52.6805 8.07047 52.3116C6.90521 51.9429 8.80329 48.0178 8.73458 47.33C7.63936 48.3406 5.62166 50.8988 3.04033 49.6326L4.38116 62.5559C4.38116 62.5559 7.94478 65.3716 18.6799 65.3716C29.4149 65.3716 33.1105 62.5998 33.1105 62.5998L34.7754 47.6316C33.4132 48.9581 29.1021 51.3137 28.8261 48.6585Z" fill="#D34A47"/>
</svg>
