<svg width="68" height="67" viewBox="0 0 68 67" fill="none" xmlns="http://www.w3.org/2000/svg">
<path d="M0 58.3609C0 63.1326 3.92567 67 8.76801 67H59.2317C64.0749 67 68 63.1321 68 58.3609V8.63934C68 3.86742 64.0743 0 59.232 0H8.76828C3.92514 0 0 3.86794 0 8.63907V58.3607V58.3609Z" fill="#65419A"/>
<path d="M26.7335 29.6365V20.1484H35.2099C36.0174 20.1484 36.7957 20.2146 37.5452 20.3473C38.2948 20.4798 38.9581 20.7163 39.5348 21.0574C40.1112 21.3984 40.5726 21.8718 40.9187 22.4777C41.2645 23.0839 41.4377 23.8604 41.4377 24.807C41.4377 26.5116 40.9187 27.7427 39.8806 28.5001C38.8428 29.2578 37.5166 29.6365 35.9018 29.6365H26.7335ZM17.6802 13.2168V53.7832H37.6318C39.4771 53.7832 41.2744 53.556 43.0235 53.1014C44.7727 52.6468 46.3295 51.9462 47.6943 50.9993C49.0588 50.0524 50.1449 48.8307 50.9522 47.3347C51.7597 45.8385 52.1632 44.0677 52.1632 42.0223C52.1632 39.4845 51.5384 37.3161 50.2892 35.5171C49.0397 33.7178 47.1463 32.4584 44.609 31.7386C46.4543 30.8676 47.8481 29.7501 48.79 28.3865C49.7316 27.023 50.2026 25.3187 50.2026 23.2731C50.2026 21.3793 49.8854 19.7886 49.2511 18.5006C48.6168 17.213 47.723 16.1808 46.5696 15.4042C45.4165 14.6277 44.0326 14.069 42.4179 13.7282C40.8034 13.3872 39.0158 13.2168 37.0552 13.2168H17.6802ZM26.7335 46.8516V35.7157H36.5938C38.5544 35.7157 40.1306 36.1606 41.3224 37.051C42.514 37.9411 43.1101 39.4277 43.1101 41.5109C43.1101 42.5717 42.9274 43.4427 42.5621 44.1245C42.1969 44.8062 41.7068 45.3462 41.0916 45.7437C40.4767 46.1415 39.7653 46.4255 38.9581 46.5961C38.1506 46.7663 37.3051 46.8516 36.4209 46.8516H26.7335Z" fill="white"/>
<path d="M62.5599 12.6227H61.6096V14.7399H59.9399V12.6227H55.0799V11.5775L59.5054 4.68994H61.6096V11.0951H62.5599V12.6227ZM59.9399 11.0951V6.44534L57.1298 11.0951H59.9399Z" fill="white"/>
</svg>
