<svg width="103" height="57" viewBox="0 0 103 57" fill="none" xmlns="http://www.w3.org/2000/svg">
<path fill-rule="evenodd" clip-rule="evenodd" d="M97.2981 28.6421L102.673 28.6722C102.673 28.6722 92.6801 42.4252 91.8641 43.5461C91.5991 43.909 91.1966 44.3005 90.9924 44.7857C90.4762 46.0054 89.9462 48.6812 89.9462 48.6812L85.0284 48.7062C85.0284 48.7062 85.7937 45.917 85.7621 44.4314C85.7345 43.1337 85.082 41.8375 84.7162 40.536C84.3463 39.2184 83.8442 36.6402 83.8442 36.6402H88.9004L89.5977 39.4735L97.2981 28.6421Z" fill="#1A1918"/>
<path fill-rule="evenodd" clip-rule="evenodd" d="M87.1193 31.5422C88.1112 32.1495 88.7199 35.4998 88.7199 35.4998C88.7199 35.4998 83.5298 35.5776 80.7054 35.5776H78.2646L75.3007 48.6807H70.768C70.768 48.6807 73.5889 34.4409 74.2549 31.8592C74.4706 31.0233 75.7333 31.1668 77.8654 31.1668H81.2702C83.4688 31.1668 86.0386 30.8816 87.1193 31.5422ZM66.0172 37.9238C66.0172 37.9238 66.1585 37.0827 65.5379 36.1087C65.0077 35.2784 64.5182 35.0852 63.1233 35.0408C59.185 34.9152 59.2616 37.8794 59.2616 37.8794L66.0172 37.9238ZM70.2885 34.5291C70.8656 36.6436 69.7655 41.6121 69.7655 41.6121C69.7655 41.6121 64.0209 41.5147 60.8742 41.6121C59.8959 41.6424 58.7248 41.504 58.4335 41.9663C58.0237 42.6141 58.5833 43.6114 59.0576 44.0327C59.6033 44.5177 60.6665 44.573 61.0486 44.6222C63.6026 44.9517 68.9478 44.7073 68.9478 44.7073L68.0219 48.8716C68.0219 48.8716 60.4683 49.2565 56.6901 48.3405C55.9441 48.1601 55.2447 47.7954 54.7722 47.2783C54.6433 47.1368 54.5314 46.9439 54.4094 46.7772C54.312 46.6442 54.028 46.2071 53.9005 45.8615C53.0376 43.526 54.0017 39.0518 54.9466 36.6541C55.0563 36.3763 55.1941 36.0238 55.3391 35.7244C55.5203 35.351 55.6736 34.9295 55.8184 34.7062C55.9157 34.5523 56.0364 34.4531 56.1375 34.3079C56.2542 34.1361 56.39 33.9697 56.5157 33.8211C56.8645 33.4103 57.2602 33.1197 57.7362 32.7589C59.3102 31.5615 62.159 30.6321 65.5814 30.9879C66.8699 31.1224 68.8158 31.5898 69.7655 32.9357C70.02 33.2951 70.1457 34.0087 70.2885 34.5293V34.5291ZM49.4985 31.1505L53.8938 31.1242C53.8938 31.1242 51.4442 42.9258 50.1959 48.6807H45.1397C41.6062 48.6807 38.4593 49.1252 37.1204 46.5557C35.8216 44.061 37.0612 39.9583 37.6433 37.1709C38.0548 35.1983 38.9215 31.1665 38.9215 31.1665L43.4753 31.1242C43.4753 31.1242 42.1886 37.4013 41.6531 40.5355C41.4614 41.6582 41.066 42.7153 41.479 43.5454C41.8712 44.3354 42.4204 44.392 44.0939 44.431C44.6241 44.4438 46.3605 44.431 46.3605 44.431L49.4985 31.1505ZM28.9264 39.6499C29.3866 37.9893 30.0578 36.1885 29.9725 34.6919C29.8802 33.0914 28.5588 31.6342 27.7062 31.3278C25.1382 30.407 22.7341 31.6943 21.7786 32.7443C20.5425 34.1042 20.124 35.6928 19.6864 37.8797C19.3607 39.5031 19.0937 41.217 19.6864 42.4831C20.7357 44.7215 24.0083 44.2327 27.5318 44.2541C28.0547 42.8305 28.4871 41.2316 28.9264 39.6499ZM35.0284 33.0986C35.5303 36.8062 33.6042 40.8987 32.2773 44.4575C33.6303 44.5816 34.8159 44.4384 34.9012 44.5409C34.99 44.6736 33.9944 48.7888 33.6473 48.7995C32.5736 48.8278 29.0155 48.8579 27.5318 48.8579C22.6902 48.8579 18.161 49.1782 15.8512 46.7331C14.9132 45.7397 14.2646 44.036 14.1075 42.8374C13.8461 40.8365 14.1738 38.6335 14.6307 36.8172C15.044 35.1772 15.5737 33.6297 16.3741 32.213C18.4086 28.6062 21.9477 25.929 27.8803 26.547C29.0311 26.6673 30.6837 27.179 31.716 27.7864C31.7872 27.8289 32.0369 28.0308 32.0941 28.0662C33.489 28.9676 34.7599 31.1189 35.0284 33.0986ZM13.6072 31.1719C13.3144 32.5264 13.0215 34.0619 12.7129 35.4004H7.83138C8.20953 33.9167 8.49909 32.4416 8.87749 31.1507C10.4395 31.1507 11.8919 31.1719 13.6074 31.1719H13.6072ZM7.65699 36.6401H12.3644C11.7488 40.1 10.5301 45.6811 9.57481 49.5661C8.97686 51.9974 8.57764 53.7715 6.95967 55.0552C6.81488 55.1704 6.73133 55.1156 6.61088 55.2323C6.31278 55.5211 4.9337 55.856 4.17038 55.9406C2.92905 56.0772 1.52563 55.9584 0 55.9266C0.399222 54.4446 0.850889 52.6649 1.2067 51.3366C4.92542 51.7938 5.01951 48.2238 5.73942 44.7853C6.15595 42.7984 7.41836 37.4367 7.65699 36.6401Z" fill="#1A1918"/>
<path fill-rule="evenodd" clip-rule="evenodd" d="M62.3836 16.8326L62.2827 17.0982C60.5638 20.4979 57.5179 22.5837 53.1733 22.6757C51.1423 22.7183 49.2072 22.1889 47.943 21.6134C45.215 20.3685 42.9203 18.0597 41.6671 15.593C39.8695 12.0569 39.5453 7.13787 43.2831 3.46387C43.3408 3.46387 42.8297 4.26055 42.8874 4.26055L42.7845 4.60053C40.0911 13.1652 48.3894 20.5051 56.4562 19.6656C58.3948 19.4637 60.867 18.3854 62.3836 16.8326Z" fill="#21609B"/>
<path fill-rule="evenodd" clip-rule="evenodd" d="M57.5019 13.2909C59.5314 13.3049 61.6512 12.3415 62.9066 10.989C61.8083 13.8205 58.6283 15.6404 54.3641 15.0616C50.7934 14.5764 47.3921 10.9271 47.0419 7.27042C46.7857 4.60921 47.6988 3.02095 49.2036 1.09424C48.6806 2.10194 48.4852 2.879 48.4365 3.37469C47.8649 9.13138 52.9642 13.2606 57.5019 13.2909Z" fill="#21609B"/>
<path fill-rule="evenodd" clip-rule="evenodd" d="M62.7027 6.14076C62.3873 6.87576 60.5709 8.26371 59.7687 8.43727C56.5922 9.12461 54.558 7.59471 53.4923 5.85379C53.3339 5.59384 53.0411 4.88381 52.9887 4.70311C52.5754 3.27592 52.7653 1.11729 53.9981 0C53.6268 1.0625 53.5726 2.29651 53.768 3.0988C53.8865 3.58379 54.2473 4.43067 54.6084 4.96332C55.2653 5.93356 55.6821 6.1693 56.526 6.68462C56.9061 6.91654 57.3139 7.10258 57.49 7.15356C58.2902 7.39287 59.9797 8.02313 62.703 6.14076" fill="#21609B"/>
</svg>
