<svg width="94" height="71" viewBox="0 0 94 71" fill="none" xmlns="http://www.w3.org/2000/svg">
<g clip-path="url(#clip0)">
<path d="M80.892 40.7875C77.6057 40.8062 74.76 41.601 72.3733 42.7845C71.492 41.028 70.6108 39.4932 70.4641 38.347C70.2989 37.0158 70.0969 36.2021 70.2989 34.6121C70.5006 33.0219 71.4186 30.7661 71.4186 30.5812C71.4001 30.4148 71.2165 29.6013 69.3256 29.5828C67.4348 29.5643 65.8006 29.9526 65.617 30.4518C65.4334 30.951 65.0663 32.0974 64.8276 33.2807C64.4971 35.0187 61.0456 41.1758 59.0811 44.4114C58.4385 43.1541 57.8877 42.0448 57.7774 41.1571C57.6124 39.826 57.4102 39.0123 57.6124 37.4224C57.8143 35.8321 58.7323 33.5765 58.7323 33.3916C58.7139 33.2252 58.5303 32.4117 56.6395 32.3932C54.7483 32.3747 53.1145 32.763 52.9309 33.2622C52.7473 33.7614 52.5454 34.9448 52.1414 36.0911C51.7557 37.2375 47.1659 47.5177 45.9725 50.1987C45.3666 51.5669 44.8344 52.6578 44.4487 53.3974C44.0631 54.137 44.4303 53.4528 44.3936 53.5268C44.0631 54.1554 43.8795 54.5067 43.8795 54.5067V54.5254C43.6225 54.9877 43.3471 55.4312 43.2184 55.4312C43.1266 55.4312 42.943 54.1924 43.2551 52.4916C43.9344 48.9229 45.5868 43.3577 45.5686 43.1543C45.5686 43.0619 45.8805 42.0817 44.5036 41.5827C43.1633 41.0835 42.6862 41.9155 42.5758 41.9155C42.4657 41.9155 42.3739 42.2114 42.3739 42.2114C42.3739 42.2114 43.861 35.9436 39.5282 35.9436C36.811 35.9436 33.0657 38.9204 31.2114 41.6384C30.0364 42.2855 27.5395 43.6535 24.8958 45.1144C23.886 45.6691 22.8395 46.2608 21.8481 46.797L21.6463 46.5747C16.3956 40.9354 6.68345 36.9416 7.08735 29.3609C7.23423 26.606 8.18892 19.3396 25.7407 10.5385C40.1161 3.32758 51.6274 5.30597 53.6284 9.70649C56.4741 15.9929 47.478 27.6784 32.5336 29.3609C26.8422 30.008 23.8495 27.7893 23.0969 26.9573C22.3075 26.0883 22.1973 26.0513 21.9036 26.2177C21.4262 26.4765 21.72 27.2531 21.9036 27.7153C22.3442 28.8802 24.1801 30.951 27.3012 31.9864C30.0366 32.8924 36.7196 33.3916 44.7977 30.2484C53.8489 26.7169 60.9172 16.9174 58.8426 8.72654C56.7313 0.38774 42.9985 -2.34872 30.0184 2.29217C22.2889 5.0656 13.917 9.39217 7.89517 15.0685C0.735011 21.7987 -0.40327 27.6784 0.0740734 30.119C1.74496 38.8276 13.66 44.5039 18.4334 48.701C18.1948 48.8303 17.9745 48.9597 17.7725 49.0708C15.3858 50.254 6.2979 55.0429 4.02134 60.1089C1.45103 65.8407 4.42525 69.964 6.40806 70.5187C12.5401 72.2383 18.819 69.1505 22.2155 64.0659C25.5934 58.9812 25.1897 52.3804 23.6292 49.3666L23.5739 49.2557L25.4465 48.1463C26.6584 47.4252 27.8518 46.7596 28.8981 46.1862C28.3108 47.7948 27.8883 49.6993 27.6682 52.4727C27.4112 55.7271 28.7331 59.9425 30.4772 61.6066C31.2483 62.3275 32.1663 62.3461 32.7354 62.3461C34.7549 62.3461 35.6729 60.6634 36.6827 58.6482C37.9311 56.1891 39.0327 53.3417 39.0327 53.3417C39.0327 53.3417 37.6557 61.0519 41.4194 61.0519C42.7963 61.0519 44.1733 59.2584 44.7975 58.3339V58.3524C44.7975 58.3524 44.8342 58.2969 44.9077 58.1675C44.9847 58.0528 45.0582 57.9357 45.128 57.8164V57.7794C45.6788 56.8179 46.9088 54.6177 48.7448 50.9752C51.113 46.2789 53.3897 40.3992 53.3897 40.3992C53.3897 40.3992 53.61 41.8414 54.2893 44.208C54.693 45.6134 55.5743 47.1479 56.2536 48.6456C55.7028 49.4221 55.3723 49.866 55.3723 49.866L55.3907 49.8845C54.9502 50.4762 54.4544 51.105 53.9405 51.7335C52.0678 53.9892 49.828 56.5595 49.5342 57.299C49.1854 58.1679 49.2588 58.815 49.9381 59.3329C50.4338 59.7027 51.3151 59.7765 52.2514 59.7027C53.9405 59.5916 55.1155 59.1665 55.703 58.9075C56.6209 58.5746 57.6674 58.0754 58.6772 57.3358C60.5131 55.9678 61.6331 54.0264 61.5229 51.4378C61.4678 50.0141 61.0088 48.6089 60.4397 47.2777C60.6049 47.0373 60.7703 46.7968 60.9354 46.5381C63.8362 42.2668 66.076 37.5707 66.076 37.5707C66.076 37.5707 66.2963 39.0128 66.9756 41.3795C67.3243 42.5813 68.0221 43.8943 68.6463 45.1886C65.9292 47.4258 64.2217 50.0143 63.6342 51.7154C62.551 54.8586 63.3956 56.2823 64.9928 56.6151C65.7087 56.763 66.737 56.4302 67.5079 56.0974C68.4626 55.7831 69.6192 55.2467 70.6842 54.4518C72.5202 53.0836 74.2827 51.1792 74.1909 48.6091C74.1358 47.4258 73.8237 46.2609 73.4014 45.1516C75.7147 44.1901 78.7071 43.6354 82.5077 44.0977C90.6776 45.0591 92.2932 50.1992 91.9813 52.344C91.6692 54.489 89.9618 55.6721 89.3924 56.0419C88.8233 56.3932 88.6397 56.5229 88.6948 56.7815C88.7682 57.17 89.0252 57.1513 89.521 57.0775C90.2002 56.9664 93.817 55.321 93.9639 51.3644C94.1842 46.2791 89.3924 40.7322 80.892 40.7875ZM17.8827 62.1799C15.1838 65.1567 11.3834 66.2846 9.76782 65.3232C8.02368 64.3062 8.7028 59.9242 12.026 56.7625C14.0456 54.8396 16.6709 53.0646 18.3967 51.9737C18.7823 51.7333 19.3698 51.3822 20.0674 50.9567C20.1776 50.883 20.251 50.8458 20.251 50.8458C20.3795 50.7719 20.5264 50.6794 20.6733 50.587C21.9034 55.0984 20.7284 59.0552 17.8827 62.1799ZM37.619 48.664C36.6827 50.9752 34.6999 56.9104 33.5065 56.5776C32.4782 56.3002 31.8542 51.8073 33.3044 47.3698C34.0387 45.1323 35.5993 42.47 36.5173 41.4344C38.0045 39.7704 39.62 39.2157 40.0241 39.8998C40.5014 40.7875 38.2065 47.2219 37.619 48.664ZM53.9038 56.5036C53.4999 56.7072 53.1327 56.8549 52.9674 56.7442C52.8389 56.6702 53.1325 56.3929 53.1325 56.3929C53.1325 56.3929 55.1704 54.1926 55.9782 53.1757C56.4372 52.5842 56.988 51.9001 57.5755 51.1233V51.3452C57.5756 54.0075 55.042 55.7825 53.9038 56.5036ZM66.4614 53.6193C66.1676 53.3974 66.2045 52.7133 67.1958 50.5685C67.5815 49.7179 68.4626 48.2942 69.9864 46.9445C70.17 47.4992 70.2803 48.0352 70.2618 48.5346C70.2436 51.8627 67.8936 53.1015 66.4614 53.6193Z" fill="#CF649A"/>
</g>
<defs>
<clipPath id="clip0">
<rect width="94" height="71" fill="white"/>
</clipPath>
</defs>
</svg>
