<svg width="50" height="71" viewBox="0 0 50 71" fill="none" xmlns="http://www.w3.org/2000/svg">
<path d="M49.909 13.9178L45.3702 65.1245L24.9676 70.8206L4.6212 65.1323L0.0870056 13.9178H49.909Z" fill="#E44D26"/>
<path d="M24.9991 66.4666L41.4854 61.8638L45.364 18.1053H24.9991V66.4666Z" fill="#F16529"/>
<path d="M16.174 30.668H24.9975V24.3867H9.35754L9.50675 26.0718L11.0398 43.3813H24.9975V37.1H16.744L16.174 30.668ZM17.5797 46.522H11.3185L12.1923 56.3845L24.9688 59.9561L24.9975 59.9483V53.4131L24.9701 53.4204L18.0238 51.5315L17.5797 46.522Z" fill="#EBEBEB"/>
<path d="M4.7225 0H7.89216V3.1537H10.7917V0H13.9616V9.55019H10.7919V6.35224H7.89236V9.55019H4.7227V0H4.7225ZM18.1296 3.16707H15.3396V0H24.0916V3.16707H21.2998V9.55019H18.1302V3.16707H18.13H18.1296ZM25.4805 0H28.7855L30.8186 3.35568L32.8497 0H36.156V9.55019H32.9993V4.81659L30.8186 8.2122H30.7639L28.5819 4.81659V9.55019H25.4805V0ZM37.7334 0H40.9041V6.39354H45.3615V9.55019H37.7332V0H37.7334Z" fill="black"/>
<path d="M24.9764 43.3813H32.6568L31.9326 51.5276L24.9762 53.4184V59.9532L37.7628 56.3845L37.8566 55.3233L39.3225 38.7867L39.4746 37.1H24.9764V43.3813ZM24.9764 30.6526V30.668H40.0421L40.1671 29.2562L40.4515 26.0718L40.6005 24.3867H24.9764V30.6528V30.6526Z" fill="white"/>
</svg>
