<svg width="137" height="58" viewBox="0 0 137 58" fill="none" xmlns="http://www.w3.org/2000/svg">
<path d="M1.87598 31.0908C1.87598 30.9137 1.88704 30.6979 1.90918 30.4434C1.94238 30.1888 1.97005 29.9785 1.99219 29.8125L4.93066 8.39648L2.82227 7.68262L3.1543 6.30469L8.69922 5.60742L9.5293 6.05566L6.3252 29.5635C6.26986 29.9508 6.27539 30.2607 6.3418 30.4932C6.41927 30.7145 6.56868 30.8252 6.79004 30.8252C6.95605 30.8252 7.15527 30.7699 7.3877 30.6592C7.63118 30.5374 7.98535 30.2829 8.4502 29.8955L8.93164 30.9248C8.85417 31.0465 8.69368 31.2402 8.4502 31.5059C8.20671 31.7715 7.89681 32.0426 7.52051 32.3193C7.15527 32.585 6.72363 32.8174 6.22559 33.0166C5.73861 33.2269 5.20182 33.332 4.61523 33.332C4.22786 33.332 3.86816 33.2878 3.53613 33.1992C3.2041 33.1217 2.91634 32.9945 2.67285 32.8174C2.42936 32.6403 2.23568 32.4079 2.0918 32.1201C1.94792 31.8324 1.87598 31.4893 1.87598 31.0908ZM16.1035 10.6377C15.7383 10.6377 15.3841 10.5768 15.041 10.4551C14.6979 10.3333 14.3936 10.1618 14.1279 9.94043C13.8623 9.70801 13.6465 9.43132 13.4805 9.11035C13.3255 8.77832 13.248 8.40755 13.248 7.99805C13.248 7.54427 13.3477 7.1237 13.5469 6.73633C13.7461 6.34896 14.0062 6.01693 14.3271 5.74023C14.6592 5.45247 15.0244 5.23112 15.4229 5.07617C15.8324 4.91016 16.2363 4.82715 16.6348 4.82715C17.1328 4.82715 17.5589 4.89909 17.9131 5.04297C18.2673 5.18685 18.5605 5.38053 18.793 5.62402C19.0254 5.85645 19.1969 6.13867 19.3076 6.4707C19.4183 6.79167 19.4736 7.13477 19.4736 7.5C19.4736 7.97591 19.374 8.40755 19.1748 8.79492C18.9867 9.18229 18.7321 9.51432 18.4111 9.79102C18.1012 10.0566 17.7415 10.2669 17.332 10.4219C16.9336 10.5658 16.5241 10.6377 16.1035 10.6377ZM11.8701 31.1074L14.3604 30.6758V18.9551L12.1689 17.0791V15.751L17.8965 13.9746L19.0088 14.3564V30.709L21.5322 31.1074V33H11.8701V31.1074ZM24.1885 31.1074L26.3467 30.7256V18.6729L24.0391 17.2119V15.585L29.4346 13.9746L30.4639 14.3066V16.7139C30.8734 16.3376 31.3438 15.9834 31.875 15.6514C32.4173 15.3193 32.9873 15.0316 33.585 14.7881C34.1937 14.5446 34.8135 14.3509 35.4443 14.207C36.0752 14.0632 36.695 13.9857 37.3037 13.9746C38.3441 13.9635 39.2129 14.1185 39.9102 14.4395C40.6185 14.7493 41.1829 15.2253 41.6035 15.8672C42.0352 16.498 42.3395 17.2949 42.5166 18.2578C42.6937 19.2096 42.7822 20.3219 42.7822 21.5947V30.709L45.2559 31.1074V33H35.6436V31.1074L38.0674 30.6758V22.2754C38.0674 21.3346 38.0231 20.5378 37.9346 19.8848C37.846 19.2318 37.6689 18.7061 37.4033 18.3076C37.1488 17.8981 36.7891 17.6104 36.3242 17.4443C35.8594 17.2673 35.2451 17.1842 34.4814 17.1953C34.2712 17.2064 34.0221 17.2396 33.7344 17.2949C33.4577 17.3392 33.1644 17.4111 32.8545 17.5107C32.5446 17.6104 32.2347 17.7321 31.9248 17.876C31.6149 18.0199 31.3271 18.1859 31.0615 18.374V30.6924L33.2861 31.1074V33H24.1885V31.1074ZM49.7217 17.0127H47.1982V15.4023C47.5745 15.3249 47.9121 15.2529 48.2109 15.1865C48.5208 15.109 48.792 15.026 49.0244 14.9375C49.2679 14.8379 49.4837 14.7217 49.6719 14.5889C49.8711 14.4561 50.0482 14.279 50.2031 14.0576C50.3359 13.8916 50.4743 13.6592 50.6182 13.3604C50.7731 13.0615 50.9225 12.7295 51.0664 12.3643C51.2214 11.999 51.3652 11.6117 51.498 11.2021C51.6419 10.7926 51.7692 10.3887 51.8799 9.99023H54.1709V14.4229H59.7988V17.0127H54.3203V24.0684C54.3203 25.4629 54.3424 26.5807 54.3867 27.4219C54.4421 28.263 54.5417 28.9105 54.6855 29.3643C54.8405 29.818 55.0452 30.1169 55.2998 30.2607C55.5544 30.4046 55.8919 30.4766 56.3125 30.4766C56.556 30.4766 56.8271 30.46 57.126 30.4268C57.4359 30.3825 57.7347 30.3327 58.0225 30.2773C58.3102 30.2109 58.5758 30.139 58.8193 30.0615C59.0739 29.973 59.2731 29.8844 59.417 29.7959L60.1309 31.5059C59.8763 31.7826 59.5277 32.0371 59.085 32.2695C58.6423 32.502 58.1442 32.7012 57.5908 32.8672C57.0485 33.0332 56.473 33.1605 55.8643 33.249C55.2666 33.3486 54.6745 33.3984 54.0879 33.3984C53.2799 33.3984 52.5993 33.2878 52.0459 33.0664C51.4925 32.8561 51.0443 32.5296 50.7012 32.0869C50.3581 31.6331 50.109 31.0576 49.9541 30.3604C49.7992 29.6631 49.7217 28.833 49.7217 27.8701V17.0127ZM62.4385 24.002C62.4385 22.5853 62.6654 21.2627 63.1191 20.0342C63.5729 18.8057 64.2204 17.7432 65.0615 16.8467C65.9137 15.9391 66.9375 15.2253 68.1328 14.7051C69.3392 14.1738 70.6895 13.9027 72.1836 13.8916C73.3678 13.8805 74.4027 14.041 75.2881 14.373C76.1735 14.694 76.9095 15.1589 77.4961 15.7676C78.0938 16.3652 78.5475 17.0957 78.8574 17.959C79.1673 18.8112 79.3444 19.763 79.3887 20.8145C79.4108 21.5117 79.3942 22.126 79.3389 22.6572C79.2835 23.1774 79.2282 23.6533 79.1729 24.085H67.2695C67.2695 24.1182 67.2695 24.1514 67.2695 24.1846C67.2806 24.2067 67.2861 24.2288 67.2861 24.251C67.3525 25.391 67.5407 26.3594 67.8506 27.1562C68.1715 27.9531 68.5866 28.6061 69.0957 29.1152C69.6159 29.6133 70.2135 29.9785 70.8887 30.2109C71.5638 30.4434 72.2832 30.5596 73.0469 30.5596C73.4564 30.5596 73.888 30.5374 74.3418 30.4932C74.8066 30.4489 75.2604 30.3825 75.7031 30.2939C76.1569 30.2054 76.5941 30.0947 77.0146 29.9619C77.4352 29.8291 77.8226 29.6742 78.1768 29.4971L78.9404 31.29C78.5641 31.611 78.0938 31.9098 77.5293 32.1865C76.9648 32.4521 76.3506 32.679 75.6865 32.8672C75.0225 33.0553 74.3197 33.1992 73.5781 33.2988C72.8477 33.3984 72.1172 33.4427 71.3867 33.4316C69.959 33.4206 68.6862 33.1937 67.5684 32.751C66.4616 32.3083 65.5264 31.6829 64.7627 30.875C63.999 30.0671 63.418 29.0876 63.0195 27.9365C62.6322 26.7744 62.4385 25.4629 62.4385 24.002ZM74.6738 21.7275C74.707 21.2516 74.7292 20.7591 74.7402 20.25C74.7513 19.7298 74.7181 19.2318 74.6406 18.7559C74.5742 18.2799 74.4414 17.8428 74.2422 17.4443C74.054 17.0459 73.7718 16.7194 73.3955 16.4648C73.1631 16.3099 72.8919 16.1882 72.582 16.0996C72.2721 16.0111 71.918 15.9668 71.5195 15.9668C70.8665 15.9668 70.291 16.1162 69.793 16.415C69.306 16.7139 68.891 17.1234 68.5479 17.6436C68.2048 18.1637 67.9281 18.778 67.7178 19.4863C67.5186 20.1836 67.3857 20.9307 67.3193 21.7275H74.6738ZM82.8252 31.1074L84.9834 30.7256V18.6729L82.6758 17.2119V15.585L88.0713 13.9746L89.1006 14.3066V16.7139C89.5101 16.3376 89.9805 15.9834 90.5117 15.6514C91.054 15.3193 91.624 15.0316 92.2217 14.7881C92.8304 14.5446 93.4502 14.3509 94.0811 14.207C94.7119 14.0632 95.3317 13.9857 95.9404 13.9746C96.9808 13.9635 97.8496 14.1185 98.5469 14.4395C99.2552 14.7493 99.8197 15.2253 100.24 15.8672C100.672 16.498 100.976 17.2949 101.153 18.2578C101.33 19.2096 101.419 20.3219 101.419 21.5947V30.709L103.893 31.1074V33H94.2803V31.1074L96.7041 30.6758V22.2754C96.7041 21.3346 96.6598 20.5378 96.5713 19.8848C96.4827 19.2318 96.3057 18.7061 96.04 18.3076C95.7855 17.8981 95.4258 17.6104 94.9609 17.4443C94.4961 17.2673 93.8818 17.1842 93.1182 17.1953C92.9079 17.2064 92.6589 17.2396 92.3711 17.2949C92.0944 17.3392 91.8011 17.4111 91.4912 17.5107C91.1813 17.6104 90.8714 17.7321 90.5615 17.876C90.2516 18.0199 89.9639 18.1859 89.6982 18.374V30.6924L91.9229 31.1074V33H82.8252V31.1074Z" fill="#00234B"/>
<path d="M105.868 29.3477C106.045 29.4915 106.283 29.6576 106.582 29.8457C106.892 30.0228 107.235 30.1943 107.611 30.3604C107.999 30.5153 108.419 30.6481 108.873 30.7588C109.338 30.8695 109.819 30.9248 110.317 30.9248C110.638 30.9248 110.97 30.8971 111.313 30.8418C111.668 30.7865 111.989 30.6813 112.276 30.5264C112.564 30.3604 112.802 30.1335 112.99 29.8457C113.178 29.5579 113.272 29.1816 113.272 28.7168C113.272 28.3184 113.195 27.9531 113.04 27.6211C112.885 27.2891 112.675 26.9736 112.409 26.6748C112.144 26.3649 111.828 26.0716 111.463 25.7949C111.109 25.5072 110.727 25.2139 110.317 24.915C109.985 24.6715 109.62 24.3727 109.222 24.0186C108.834 23.6533 108.469 23.2327 108.126 22.7568C107.794 22.2809 107.517 21.7441 107.296 21.1465C107.075 20.5488 106.964 19.8903 106.964 19.1709C106.964 18.2855 107.152 17.5052 107.528 16.8301C107.905 16.1439 108.414 15.5684 109.056 15.1035C109.698 14.6387 110.445 14.29 111.297 14.0576C112.16 13.8141 113.073 13.6924 114.036 13.6924C114.479 13.6924 114.927 13.7145 115.381 13.7588C115.835 13.792 116.255 13.8418 116.643 13.9082C117.03 13.9635 117.373 14.0299 117.672 14.1074C117.971 14.1738 118.187 14.2402 118.319 14.3066L117.655 17.4111C117.578 17.3115 117.434 17.1787 117.224 17.0127C117.024 16.8467 116.77 16.6862 116.46 16.5312C116.161 16.3763 115.807 16.2435 115.397 16.1328C114.999 16.0111 114.556 15.9502 114.069 15.9502C113.715 15.9502 113.372 15.9889 113.04 16.0664C112.719 16.1328 112.426 16.249 112.16 16.415C111.895 16.5811 111.673 16.7969 111.496 17.0625C111.33 17.3281 111.23 17.6546 111.197 18.042C111.175 18.4294 111.225 18.7946 111.347 19.1377C111.468 19.4808 111.651 19.8128 111.895 20.1338C112.149 20.4548 112.453 20.7757 112.808 21.0967C113.173 21.4066 113.571 21.722 114.003 22.043C114.435 22.375 114.861 22.7347 115.281 23.1221C115.713 23.4984 116.095 23.9245 116.427 24.4004C116.759 24.8652 117.024 25.3854 117.224 25.9609C117.434 26.5254 117.539 27.1562 117.539 27.8535C117.539 28.8053 117.334 29.6243 116.925 30.3105C116.526 30.9967 115.99 31.5667 115.314 32.0205C114.639 32.4632 113.865 32.7897 112.99 33C112.116 33.2214 111.214 33.332 110.284 33.332C109.764 33.332 109.233 33.2988 108.69 33.2324C108.159 33.166 107.656 33.083 107.18 32.9834C106.704 32.8838 106.289 32.7731 105.935 32.6514C105.58 32.5186 105.326 32.3913 105.171 32.2695L105.868 29.3477ZM120.594 25.8613C120.605 24.7546 120.732 23.6865 120.976 22.6572C121.219 21.6169 121.557 20.6484 121.988 19.752C122.431 18.8444 122.962 18.0199 123.582 17.2783C124.202 16.5368 124.888 15.9004 125.641 15.3691C126.404 14.8379 127.223 14.4284 128.098 14.1406C128.983 13.8418 129.907 13.6924 130.87 13.6924C131.744 13.6924 132.497 13.7975 133.128 14.0078C133.77 14.2181 134.296 14.5114 134.705 14.8877C135.126 15.264 135.436 15.7067 135.635 16.2158C135.845 16.7139 135.956 17.2562 135.967 17.8428C135.978 18.7282 135.806 19.5306 135.452 20.25C135.109 20.9583 134.644 21.5892 134.058 22.1426C133.471 22.696 132.801 23.1774 132.049 23.5869C131.296 23.9854 130.521 24.3174 129.725 24.583C128.928 24.8376 128.142 25.0368 127.367 25.1807C126.604 25.3135 125.917 25.3854 125.309 25.3965C125.275 26.0938 125.314 26.7633 125.425 27.4053C125.547 28.0361 125.74 28.6006 126.006 29.0986C126.271 29.5856 126.62 29.973 127.052 30.2607C127.494 30.5485 128.026 30.6924 128.646 30.6924C129.719 30.6924 130.693 30.46 131.567 29.9951C132.453 29.5192 133.244 28.916 133.941 28.1855L134.854 29.7295C134.622 30.0726 134.285 30.4544 133.842 30.875C133.41 31.2956 132.879 31.6885 132.248 32.0537C131.628 32.4189 130.92 32.7233 130.123 32.9668C129.337 33.2103 128.479 33.332 127.55 33.332C126.299 33.332 125.231 33.1217 124.346 32.7012C123.46 32.2806 122.735 31.7217 122.171 31.0244C121.618 30.3271 121.214 29.5303 120.959 28.6338C120.704 27.7373 120.583 26.8132 120.594 25.8613ZM125.342 23.4873C125.729 23.4652 126.15 23.3988 126.604 23.2881C127.068 23.1774 127.533 23.0169 127.998 22.8066C128.474 22.5964 128.928 22.3473 129.359 22.0596C129.791 21.7607 130.173 21.4176 130.505 21.0303C130.848 20.6429 131.119 20.2168 131.318 19.752C131.518 19.276 131.612 18.7614 131.601 18.208C131.578 17.389 131.418 16.7858 131.119 16.3984C130.82 16 130.405 15.8008 129.874 15.8008C129.376 15.8008 128.922 15.9225 128.513 16.166C128.114 16.4095 127.755 16.736 127.434 17.1455C127.113 17.5439 126.83 18.0088 126.587 18.54C126.354 19.0713 126.15 19.6247 125.973 20.2002C125.807 20.7646 125.668 21.3346 125.558 21.9102C125.458 22.4746 125.386 23.0003 125.342 23.4873Z" fill="#FF4A5B"/>
<path d="M3.77588 49.8364H1.93896V53H0.902344V45.1797H3.49121C4.37207 45.1797 5.04883 45.3802 5.52148 45.7812C5.99772 46.1823 6.23584 46.766 6.23584 47.5322C6.23584 48.0192 6.10335 48.4435 5.83838 48.8052C5.57699 49.1668 5.21175 49.4372 4.74268 49.6162L6.57959 52.9355V53H5.47314L3.77588 49.8364ZM1.93896 48.9932H3.52344C4.03548 48.9932 4.44189 48.8607 4.74268 48.5957C5.04704 48.3307 5.19922 47.9762 5.19922 47.5322C5.19922 47.0488 5.0542 46.6782 4.76416 46.4204C4.4777 46.1626 4.06234 46.0319 3.51807 46.0283H1.93896V48.9932ZM12.6564 49.3853H9.26729V52.1567H13.2043V53H8.23604V45.1797H13.1506V46.0283H9.26729V48.542H12.6564V49.3853ZM20.7904 50.5186C20.6938 51.3457 20.3876 51.9849 19.872 52.436C19.3599 52.8836 18.6778 53.1074 17.8256 53.1074C16.9018 53.1074 16.1605 52.7762 15.602 52.1138C15.0469 51.4513 14.7694 50.5651 14.7694 49.4551V48.7031C14.7694 47.9762 14.8983 47.3371 15.1562 46.7856C15.4175 46.2342 15.7864 45.8117 16.2626 45.5181C16.7388 45.2209 17.2903 45.0723 17.9169 45.0723C18.7476 45.0723 19.4136 45.305 19.9149 45.7705C20.4162 46.2324 20.7081 46.8734 20.7904 47.6934H19.7538C19.6643 47.0703 19.4691 46.6191 19.1684 46.3398C18.8712 46.0605 18.454 45.9209 17.9169 45.9209C17.258 45.9209 16.7406 46.1644 16.3646 46.6514C15.9923 47.1383 15.8061 47.8312 15.8061 48.73V49.4873C15.8061 50.3359 15.9833 51.0109 16.3378 51.5122C16.6923 52.0135 17.1882 52.2642 17.8256 52.2642C18.3985 52.2642 18.8371 52.1353 19.1415 51.8774C19.4494 51.616 19.6535 51.1631 19.7538 50.5186H20.7904ZM25.6212 49.8364H23.7843V53H22.7477V45.1797H25.3365C26.2174 45.1797 26.8941 45.3802 27.3668 45.7812C27.843 46.1823 28.0812 46.766 28.0812 47.5322C28.0812 48.0192 27.9487 48.4435 27.6837 48.8052C27.4223 49.1668 27.0571 49.4372 26.588 49.6162L28.4249 52.9355V53H27.3185L25.6212 49.8364ZM23.7843 48.9932H25.3687C25.8808 48.9932 26.2872 48.8607 26.588 48.5957C26.8923 48.3307 27.0445 47.9762 27.0445 47.5322C27.0445 47.0488 26.8995 46.6782 26.6095 46.4204C26.323 46.1626 25.9076 46.0319 25.3634 46.0283H23.7843V48.9932ZM35.5867 45.1797V50.4971C35.5831 51.2347 35.3504 51.8381 34.8885 52.3071C34.4301 52.7762 33.8071 53.0394 33.0193 53.0967L32.7454 53.1074C31.8896 53.1074 31.2075 52.8765 30.699 52.4146C30.1906 51.9526 29.9327 51.3171 29.9256 50.5078V45.1797H30.9461V50.4756C30.9461 51.0413 31.1019 51.4818 31.4134 51.7969C31.7249 52.1084 32.1689 52.2642 32.7454 52.2642C33.3291 52.2642 33.7749 52.1084 34.0828 51.7969C34.3943 51.4854 34.5501 51.0467 34.5501 50.481V45.1797H35.5867ZM38.8706 53H37.8394V45.1797H38.8706V53ZM46.5534 46.0283H44.0397V53H43.0139V46.0283H40.5056V45.1797H46.5534V46.0283ZM49.5956 45.1797L52.1522 51.5605L54.7089 45.1797H56.0463V53H55.015V49.9546L55.1117 46.6675L52.5443 53H51.7548L49.1928 46.6836L49.2948 49.9546V53H48.2636V45.1797H49.5956ZM62.8375 49.3853H59.4483V52.1567H63.3854V53H58.4171V45.1797H63.3316V46.0283H59.4483V48.542H62.8375V49.3853ZM71.2293 53H70.1927L66.2557 46.9736V53H65.219V45.1797H66.2557L70.2034 51.2329V45.1797H71.2293V53ZM78.853 46.0283H76.3394V53H75.3135V46.0283H72.8052V45.1797H78.853V46.0283ZM87.9452 50.959H84.6688L83.933 53H82.8695L85.8559 45.1797H86.7582L89.7499 53H88.6918L87.9452 50.959ZM84.9804 50.1104H87.6391L86.307 46.4526L84.9804 50.1104ZM97.0621 51.9741C96.7971 52.3537 96.4265 52.6383 95.9503 52.8281C95.4776 53.0143 94.9262 53.1074 94.296 53.1074C93.6586 53.1074 93.0929 52.9588 92.5987 52.6616C92.1046 52.3608 91.7215 51.9347 91.4493 51.3833C91.1808 50.8319 91.0429 50.1927 91.0357 49.4658V48.7837C91.0357 47.6056 91.3097 46.6925 91.8575 46.0444C92.409 45.3963 93.1824 45.0723 94.1778 45.0723C94.9942 45.0723 95.6513 45.2817 96.149 45.7007C96.6467 46.116 96.9511 46.7069 97.0621 47.4731H96.0309C95.8375 46.4383 95.2216 45.9209 94.1832 45.9209C93.4921 45.9209 92.9675 46.1644 92.6095 46.6514C92.255 47.1348 92.0759 47.8366 92.0724 48.7568V49.396C92.0724 50.2733 92.2729 50.9715 92.6739 51.4907C93.075 52.0063 93.6174 52.2642 94.3014 52.2642C94.6881 52.2642 95.0265 52.2212 95.3165 52.1353C95.6065 52.0493 95.8465 51.9043 96.0362 51.7002V49.9438H94.2262V49.106H97.0621V51.9741ZM103.757 49.3853H100.367V52.1567H104.304V53H99.3362V45.1797H104.251V46.0283H100.367V48.542H103.757V49.3853ZM112.148 53H111.112L107.175 46.9736V53H106.138V45.1797H107.175L111.123 51.2329V45.1797H112.148V53ZM120.282 50.5186C120.186 51.3457 119.88 51.9849 119.364 52.436C118.852 52.8836 118.17 53.1074 117.318 53.1074C116.394 53.1074 115.653 52.7762 115.094 52.1138C114.539 51.4513 114.261 50.5651 114.261 49.4551V48.7031C114.261 47.9762 114.39 47.3371 114.648 46.7856C114.91 46.2342 115.278 45.8117 115.755 45.5181C116.231 45.2209 116.782 45.0723 117.409 45.0723C118.24 45.0723 118.906 45.305 119.407 45.7705C119.908 46.2324 120.2 46.8734 120.282 47.6934H119.246C119.156 47.0703 118.961 46.6191 118.66 46.3398C118.363 46.0605 117.946 45.9209 117.409 45.9209C116.75 45.9209 116.233 46.1644 115.857 46.6514C115.484 47.1383 115.298 47.8312 115.298 48.73V49.4873C115.298 50.3359 115.475 51.0109 115.83 51.5122C116.184 52.0135 116.68 52.2642 117.318 52.2642C117.89 52.2642 118.329 52.1353 118.633 51.8774C118.941 51.616 119.146 51.1631 119.246 50.5186H120.282ZM124.63 49.106L126.671 45.1797H127.842L125.145 50.0835V53H124.114V50.0835L121.418 45.1797H122.6L124.63 49.106Z" fill="#7A90A7"/>
</svg>
